<svg width="290" height="103" viewBox="0 0 290 103" fill="none" xmlns="http://www.w3.org/2000/svg">
<g clip-path="url(#clip0_12_21)">
<path opacity="0.2" d="M48.4406 0H48.4405C21.6875 0 0 21.0418 0 46.9983V46.9984C0 72.9548 21.6875 93.9967 48.4405 93.9967H48.4406C75.1936 93.9967 96.8811 72.9548 96.8811 46.9984V46.9983C96.8811 21.0418 75.1936 0 48.4406 0Z" fill="#FA7275"/>
<path d="M106.972 70.497C106.972 53.1927 92.5134 39.1647 74.6781 39.1647C56.8428 39.1647 42.3844 53.1927 42.3844 70.497C42.3844 87.8013 56.8428 101.829 74.6781 101.829C92.5134 101.829 106.972 87.8013 106.972 70.497Z" fill="#FA7275"/>
<path d="M128.998 40.5046L129.238 39.2566C129.11 37.5286 127.942 36.6646 125.734 36.6646C124.454 36.6646 123.334 37.1286 122.374 38.0566C121.446 38.9526 120.982 39.9126 120.982 40.9366C120.982 41.9286 121.398 42.8086 122.23 43.5766C123.094 44.3126 124.118 44.9846 125.302 45.5926C126.518 46.1686 127.718 46.8086 128.902 47.5126C130.118 48.1846 131.142 49.0646 131.974 50.1526C132.838 51.2406 133.27 52.4726 133.27 53.8486C133.27 56.6966 132.15 58.9366 129.91 60.5686C127.67 62.2006 125.254 63.0166 122.662 63.0166C120.07 63.0166 117.91 62.5526 116.182 61.6246C114.454 60.6646 113.59 59.2246 113.59 57.3046C113.59 56.2806 113.942 55.3526 114.646 54.5206C115.35 53.6886 116.358 53.2726 117.67 53.2726C118.182 53.2726 118.646 53.4166 119.062 53.7046C119.478 53.9926 119.734 54.3766 119.83 54.8566C119.83 55.3366 119.542 55.5766 118.966 55.5766C117.878 55.5766 117.334 56.0406 117.334 56.9686C117.366 58.0246 117.862 58.9846 118.822 59.8486C119.814 60.7126 121.19 61.1446 122.95 61.1446C124.742 61.1446 126.262 60.5366 127.51 59.3206C128.79 58.1046 129.43 56.6326 129.43 54.9046C129.43 53.7526 128.998 52.7126 128.134 51.7846C127.27 50.8566 126.23 50.0726 125.014 49.4326C123.798 48.7606 122.566 48.0886 121.318 47.4166C120.102 46.7446 119.062 45.9286 118.198 44.9686C117.334 44.0086 116.902 42.9206 116.902 41.7046C116.902 39.5606 117.814 37.8486 119.638 36.5686C121.494 35.2886 123.59 34.6486 125.926 34.6486C127.494 34.6486 128.918 34.9686 130.198 35.6086C131.478 36.2486 132.134 37.2246 132.166 38.5366C132.166 39.3046 131.974 39.9446 131.59 40.4566C131.206 40.9686 130.678 41.2246 130.006 41.2246C129.366 41.2246 129.03 40.9846 128.998 40.5046ZM140.447 59.9446L140.495 61.4326C140.495 62.3286 140.239 62.7766 139.727 62.7766C138.959 62.7766 138.223 62.6806 137.519 62.4886C136.815 62.2646 136.463 61.9766 136.463 61.6246C136.463 61.2406 136.543 59.9766 136.703 57.8326C136.895 55.6566 136.991 54.0246 136.991 52.9366V50.1046C136.991 48.5686 137.151 47.6406 137.471 47.3206C137.791 47.0006 138.351 46.5366 139.151 45.9286C139.983 45.3206 140.575 45.0166 140.927 45.0166C141.311 45.0166 141.551 45.0806 141.647 45.2086C141.743 45.3366 141.791 45.5766 141.791 45.9286C141.791 47.6246 141.471 49.2246 140.831 50.7286C140.671 52.5526 140.591 53.8166 140.591 54.5206C142.287 51.3526 143.471 49.2726 144.143 48.2806C145.327 46.4246 146.399 45.4966 147.359 45.4966C147.967 45.4966 148.527 45.7366 149.039 46.2166C149.583 46.6966 149.855 47.2886 149.855 47.9926C149.855 48.6966 149.839 49.3686 149.807 50.0086C149.807 50.6166 149.791 51.0966 149.759 51.4486C149.727 51.8006 149.711 52.0246 149.711 52.1206C149.839 51.8646 150.383 51.1446 151.343 49.9606C152.303 48.7766 152.943 48.0086 153.263 47.6566C153.615 47.3046 153.983 46.9526 154.367 46.6006C155.103 45.8646 155.759 45.4966 156.335 45.4966C156.943 45.4966 157.503 45.7206 158.015 46.1686C158.559 46.6166 158.831 47.1766 158.831 47.8486C158.831 49.2566 158.671 51.3366 158.351 54.0886C158.063 56.8086 157.919 58.5366 157.919 59.2726C157.919 59.9766 158.015 60.3286 158.207 60.3286C158.751 60.2966 159.503 59.6246 160.463 58.3126C161.423 56.9686 162.367 55.2566 163.295 53.1766C164.255 51.0966 164.831 50.0566 165.023 50.0566C165.247 50.0566 165.359 50.1846 165.359 50.4406C165.359 51.3366 164.895 52.7606 163.967 54.7126C161.439 60.0886 159.311 62.7766 157.583 62.7766C156.495 62.7766 155.631 62.5206 154.991 62.0086C154.767 61.7846 154.655 61.2086 154.655 60.2806C154.655 59.3206 154.735 57.7846 154.895 55.6726C155.087 53.5286 155.183 51.9286 155.183 50.8726C155.183 49.8166 155.007 49.2886 154.655 49.2886C154.239 49.2886 153.327 49.9926 151.919 51.4006C150.543 52.8086 149.807 53.8006 149.711 54.3766C149.519 55.4646 149.423 57.8166 149.423 61.4326C149.423 62.3286 149.183 62.7766 148.703 62.7766C147.967 62.7766 147.263 62.6806 146.591 62.4886C145.951 62.2646 145.631 61.9766 145.631 61.6246C145.631 61.2406 145.727 59.6566 145.919 56.8726C146.111 54.0886 146.207 52.1366 146.207 51.0166C146.207 49.8646 146.015 49.2886 145.631 49.2886C145.279 49.2886 144.399 50.3926 142.991 52.6006C141.583 54.7766 140.799 56.2966 140.639 57.1606C140.511 58.0246 140.447 58.9526 140.447 59.9446ZM176.446 62.7766C175.198 62.7766 174.254 62.5206 173.614 62.0086C173.39 61.7846 173.278 61.2246 173.278 60.3286C173.278 59.4006 173.31 58.1686 173.374 56.6326C172.542 58.7126 171.71 60.2646 170.878 61.2886C170.078 62.2806 169.038 62.7766 167.758 62.7766C166.478 62.7766 165.358 62.1846 164.398 61.0006C163.438 59.7846 162.958 57.8966 162.958 55.3366C162.958 52.7446 163.678 50.4566 165.118 48.4726C166.59 46.4886 168.51 45.4966 170.878 45.4966C171.902 45.4966 173.054 46.1686 174.334 47.5126C174.59 47.1606 175.038 46.7446 175.678 46.2646C176.35 45.7526 176.91 45.4966 177.358 45.4966C177.838 45.4966 178.078 46.1046 178.078 47.3206C178.078 47.6406 177.982 48.2646 177.79 49.1926C177.63 50.1206 177.438 50.7926 177.214 51.2086C176.926 51.9446 176.782 54.5526 176.782 59.0326C176.782 59.8966 176.878 60.3286 177.07 60.3286C177.614 60.2966 178.366 59.6246 179.326 58.3126C180.286 56.9686 181.23 55.2566 182.158 53.1766C183.118 51.0966 183.694 50.0566 183.886 50.0566C184.11 50.0566 184.222 50.1846 184.222 50.4406C184.222 51.3366 183.758 52.7606 182.83 54.7126C180.302 60.0886 178.174 62.7766 176.446 62.7766ZM170.59 47.4166C169.694 47.4166 168.734 48.0886 167.71 49.4326C166.718 50.7446 166.222 52.2966 166.222 54.0886C166.222 55.8806 166.478 57.3526 166.99 58.5046C167.534 59.6566 168.238 60.2326 169.102 60.2326C170.158 60.2326 171.71 57.5926 173.758 52.3126C173.79 52.0566 173.822 51.6246 173.854 51.0166C173.918 50.3766 173.966 49.8966 173.998 49.5766C173.71 49.0646 173.198 48.5846 172.462 48.1366C171.758 47.6566 171.134 47.4166 170.59 47.4166ZM185.989 50.0086L188.629 49.7206C188.885 49.7206 189.109 49.8646 189.301 50.1526C189.493 50.4406 189.589 50.7446 189.589 51.0646C189.589 51.3846 189.477 52.4726 189.253 54.3286C189.061 56.1846 188.965 57.6566 188.965 58.7446C188.965 59.8006 189.061 60.3286 189.253 60.3286C189.797 60.2966 190.549 59.6246 191.509 58.3126C192.469 56.9686 193.413 55.2566 194.341 53.1766C195.301 51.0966 195.877 50.0566 196.069 50.0566C196.293 50.0566 196.405 50.1846 196.405 50.4406C196.405 51.3366 195.941 52.7606 195.013 54.7126C192.485 60.0886 190.357 62.7766 188.629 62.7766C187.381 62.7766 186.437 62.5206 185.797 62.0086C185.573 61.7846 185.461 60.3926 185.461 57.8326C185.461 55.2726 185.733 53.0806 186.277 51.2566C184.421 51.2566 183.125 50.6646 182.389 49.4806C182.005 48.8726 181.813 48.1846 181.813 47.4166C181.813 46.6486 181.973 45.9766 182.293 45.4006C182.613 44.8246 183.061 44.5366 183.637 44.5366C184.245 44.5366 184.789 44.8566 185.269 45.4966C185.781 46.1046 186.037 46.7926 186.037 47.5606C186.037 48.3286 185.813 49.0966 185.365 49.8646C185.493 49.9606 185.701 50.0086 185.989 50.0086ZM205.28 54.7126C202.752 60.0886 200.608 62.7766 198.848 62.7766C197.12 62.7766 196.096 62.5686 195.776 62.1526C195.488 61.7366 195.344 60.3606 195.344 58.0246C195.344 55.6886 195.568 52.3126 196.016 47.8966C194.416 47.5766 193.568 46.9206 193.472 45.9286C193.472 45.4166 193.808 45.1606 194.48 45.1606C195.152 45.1606 195.744 45.2886 196.256 45.5446C196.544 43.2406 196.88 40.9046 197.264 38.5366C197.36 37.9286 197.664 37.3526 198.176 36.8086C198.688 36.2646 199.184 35.9926 199.664 35.9926C200.08 35.9926 200.288 36.6486 200.288 37.9606C200.288 38.5686 200.064 41.3686 199.616 46.3606C200.48 46.2006 201.424 45.8806 202.448 45.4006C203.504 44.9206 204.128 44.6806 204.32 44.6806C204.896 44.6806 205.184 44.8566 205.184 45.2086C205.216 45.5286 204.624 45.9766 203.408 46.5526C202.192 47.0966 200.88 47.5126 199.472 47.8006C199.088 52.4726 198.896 56.0086 198.896 58.4086C198.896 59.6886 199.088 60.3286 199.472 60.3286C200.048 60.2966 200.816 59.6246 201.776 58.3126C202.736 57.0006 203.68 55.3046 204.608 53.2246C205.568 51.1126 206.144 50.0566 206.336 50.0566C206.56 50.0566 206.672 50.1846 206.672 50.4406C206.672 51.3366 206.208 52.7606 205.28 54.7126ZM215.896 63.4966C213.24 63.4966 211.432 62.3446 210.472 60.0406C209.8 58.4726 209.272 56.4886 208.888 54.0886C207.928 55.1766 207.288 55.9286 206.968 56.3446C206.648 56.7286 206.36 56.9206 206.104 56.9206C205.72 56.9206 205.528 56.7606 205.528 56.4406C205.528 56.2486 205.624 56.0566 205.816 55.8646C206.936 54.7446 207.896 53.7206 208.696 52.7926C208.44 50.9686 208.312 49.0326 208.312 46.9846C208.312 44.9046 208.504 42.9526 208.888 41.1286C209.272 39.3046 209.912 37.7846 210.808 36.5686C211.736 35.3206 212.872 34.6966 214.216 34.6966C215.848 34.6966 216.664 36.0886 216.664 38.8726C216.664 42.4566 215.224 46.1526 212.344 49.9606C212.568 52.8406 213.128 55.5446 214.024 58.0726C214.376 59.0966 214.76 59.8646 215.176 60.3766C215.624 60.8566 216.232 61.0966 217 61.0966C217.8 61.0966 218.68 60.5686 219.64 59.5126C220.632 58.4246 221.544 57.0326 222.376 55.3366C223.208 53.6086 223.912 51.5446 224.488 49.1446C225.064 46.7126 225.352 44.1846 225.352 41.5606C225.352 38.9366 225.16 37.0966 224.776 36.0406C224.392 34.9526 223.736 33.9766 222.808 33.1126C221.592 32.0886 220.984 31.0806 220.984 30.0886C220.984 29.6086 221.176 29.1926 221.56 28.8406C221.976 28.4566 222.392 28.2646 222.808 28.2646C223.864 28.2646 224.744 28.6006 225.448 29.2726C226.184 29.9446 226.712 30.8566 227.032 32.0086C227.608 34.0246 227.896 36.2326 227.896 38.6326C227.896 43.1446 227.272 47.3526 226.024 51.2566C224.808 55.1606 223.272 58.1846 221.416 60.3286C219.592 62.4406 217.752 63.4966 215.896 63.4966ZM214.84 39.4966C214.84 37.8006 214.648 36.9526 214.264 36.9526C214.008 36.9526 213.72 37.3366 213.4 38.1046C213.08 38.8726 212.792 39.9446 212.536 41.3206C212.28 42.6966 212.152 44.0406 212.152 45.3526C212.152 46.6646 212.168 47.5926 212.2 48.1366C213.96 45.1926 214.84 42.3126 214.84 39.4966ZM242.96 62.7766C241.712 62.7766 240.768 62.5206 240.128 62.0086C239.904 61.7846 239.792 61.2246 239.792 60.3286C239.792 59.4006 239.824 58.1686 239.888 56.6326C239.056 58.7126 238.224 60.2646 237.392 61.2886C236.592 62.2806 235.552 62.7766 234.272 62.7766C232.992 62.7766 231.872 62.1846 230.912 61.0006C229.952 59.7846 229.472 57.8966 229.472 55.3366C229.472 52.7446 230.192 50.4566 231.632 48.4726C233.104 46.4886 235.024 45.4966 237.392 45.4966C238.416 45.4966 239.568 46.1686 240.848 47.5126C241.104 47.1606 241.552 46.7446 242.192 46.2646C242.864 45.7526 243.424 45.4966 243.872 45.4966C244.352 45.4966 244.592 46.1046 244.592 47.3206C244.592 47.6406 244.496 48.2646 244.304 49.1926C244.144 50.1206 243.952 50.7926 243.728 51.2086C243.44 51.9446 243.296 54.5526 243.296 59.0326C243.296 59.8966 243.392 60.3286 243.584 60.3286C244.128 60.2966 244.88 59.6246 245.84 58.3126C246.8 56.9686 247.744 55.2566 248.672 53.1766C249.632 51.0966 250.208 50.0566 250.4 50.0566C250.624 50.0566 250.736 50.1846 250.736 50.4406C250.736 51.3366 250.272 52.7606 249.344 54.7126C246.816 60.0886 244.688 62.7766 242.96 62.7766ZM237.104 47.4166C236.208 47.4166 235.248 48.0886 234.224 49.4326C233.232 50.7446 232.736 52.2966 232.736 54.0886C232.736 55.8806 232.992 57.3526 233.504 58.5046C234.048 59.6566 234.752 60.2326 235.616 60.2326C236.672 60.2326 238.224 57.5926 240.272 52.3126C240.304 52.0566 240.336 51.6246 240.368 51.0166C240.432 50.3766 240.48 49.8966 240.512 49.5766C240.224 49.0646 239.712 48.5846 238.976 48.1366C238.272 47.6566 237.648 47.4166 237.104 47.4166ZM248.327 58.3606L248.615 52.9846C248.615 49.5606 248.775 47.6886 249.095 47.3686C249.415 47.0486 249.975 46.5846 250.775 45.9766C251.607 45.3366 252.199 45.0166 252.551 45.0166C252.935 45.0166 253.175 45.0806 253.271 45.2086C253.367 45.3366 253.415 45.5926 253.415 45.9766C253.415 47.3526 253.111 48.7446 252.503 50.1526C252.023 53.0966 251.783 55.5126 251.783 57.4006C251.783 59.2886 252.087 60.2326 252.695 60.2326C253.431 60.2326 254.295 59.5926 255.287 58.3126C256.279 57.0326 257.271 55.1286 258.263 52.6006C258.551 49.4006 258.775 47.6726 258.935 47.4166C259.127 47.1606 259.575 46.6966 260.279 46.0246C260.983 45.3526 261.559 45.0166 262.007 45.0166C262.487 45.0166 262.727 45.6246 262.727 46.8406C262.727 47.1606 262.631 47.7846 262.439 48.7126C262.279 49.6406 262.087 50.3126 261.863 50.7286C261.511 51.6246 261.335 54.3926 261.335 59.0326C261.335 59.8966 261.431 60.3286 261.623 60.3286C262.167 60.2966 262.919 59.6246 263.879 58.3126C264.839 56.9686 265.783 55.2566 266.711 53.1766C267.671 51.0966 268.247 50.0566 268.439 50.0566C268.663 50.0566 268.775 50.1846 268.775 50.4406C268.775 51.3366 268.311 52.7606 267.383 54.7126C264.855 60.0886 262.727 62.7766 260.999 62.7766C259.751 62.7766 258.807 62.5206 258.167 62.0086C257.943 61.7846 257.831 61.0966 257.831 59.9446C257.831 58.7926 257.879 57.5126 257.975 56.1046C256.951 58.2806 255.927 59.9446 254.903 61.0966C253.879 62.2166 252.727 62.7766 251.447 62.7766C250.199 62.7766 249.367 62.4406 248.951 61.7686C248.535 61.0966 248.327 59.9606 248.327 58.3606ZM269.842 62.7766C269.138 62.7766 268.482 62.6966 267.874 62.5366C267.298 62.3446 266.946 62.1686 266.818 62.0086C266.498 61.6246 266.338 59.6406 266.338 56.0566C266.338 52.4406 266.738 47.5446 267.538 41.3686C268.21 36.2806 269.778 33.7366 272.242 33.7366C272.818 33.7366 273.234 34.0566 273.49 34.6966C273.746 35.3046 273.874 35.8966 273.874 36.4726C273.874 40.6326 272.61 45.2886 270.082 50.4406C269.986 53.0966 269.938 55.4166 269.938 57.4006C269.938 59.3526 270.114 60.3286 270.466 60.3286C271.01 60.2966 271.762 59.6246 272.722 58.3126C273.682 56.9686 274.626 55.2566 275.554 53.1766C276.514 51.0966 277.09 50.0566 277.282 50.0566C277.506 50.0566 277.618 50.1846 277.618 50.4406C277.618 51.3366 277.154 52.7606 276.226 54.7126C273.698 60.0886 271.57 62.7766 269.842 62.7766ZM272.674 36.9046C272.674 35.8806 272.546 35.3686 272.29 35.3686C271.33 35.3686 270.626 39.3526 270.178 47.3206C271.842 42.9366 272.674 39.4646 272.674 36.9046ZM285.961 54.7126C283.433 60.0886 281.289 62.7766 279.529 62.7766C277.801 62.7766 276.777 62.5686 276.457 62.1526C276.169 61.7366 276.025 60.3606 276.025 58.0246C276.025 55.6886 276.249 52.3126 276.697 47.8966C275.097 47.5766 274.249 46.9206 274.153 45.9286C274.153 45.4166 274.489 45.1606 275.161 45.1606C275.833 45.1606 276.425 45.2886 276.937 45.5446C277.225 43.2406 277.561 40.9046 277.945 38.5366C278.041 37.9286 278.345 37.3526 278.857 36.8086C279.369 36.2646 279.865 35.9926 280.345 35.9926C280.761 35.9926 280.969 36.6486 280.969 37.9606C280.969 38.5686 280.745 41.3686 280.297 46.3606C281.161 46.2006 282.105 45.8806 283.129 45.4006C284.185 44.9206 284.809 44.6806 285.001 44.6806C285.577 44.6806 285.865 44.8566 285.865 45.2086C285.897 45.5286 285.305 45.9766 284.089 46.5526C282.873 47.0966 281.561 47.5126 280.153 47.8006C279.769 52.4726 279.577 56.0086 279.577 58.4086C279.577 59.6886 279.769 60.3286 280.153 60.3286C280.729 60.2966 281.497 59.6246 282.457 58.3126C283.417 57.0006 284.361 55.3046 285.289 53.2246C286.249 51.1126 286.825 50.0566 287.017 50.0566C287.241 50.0566 287.353 50.1846 287.353 50.4406C287.353 51.3366 286.889 52.7606 285.961 54.7126Z" fill="#FA7275"/>
</g>
<defs>
<clipPath id="clip0_12_21">
<rect width="290" height="103" fill="white"/>
</clipPath>
</defs>
</svg>
