<svg width="280" height="100" viewBox="0 0 280 100" fill="none" xmlns="http://www.w3.org/2000/svg">
<g opacity="0.7" clip-path="url(#clip0_10_3)">
<path opacity="0.2" d="M46.7702 0H46.7701C20.9397 0 0 20.429 0 45.6294V45.6295C0 70.8299 20.9397 91.2589 46.7701 91.2589H46.7702C72.6007 91.2589 93.5404 70.8299 93.5404 45.6295V45.6294C93.5404 20.429 72.6007 0 46.7702 0Z" fill="white"/>
<path d="M102.667 69C102.667 51.8792 88.7377 38 71.5555 38C54.3734 38 40.4444 51.8792 40.4444 69C40.4444 86.1208 54.3734 100 71.5555 100C88.7377 100 102.667 86.1208 102.667 69Z" fill="white"/>
<path d="M121.558 39.968L121.798 38.72C121.67 36.992 120.502 36.128 118.294 36.128C117.014 36.128 115.894 36.592 114.934 37.52C114.006 38.416 113.542 39.376 113.542 40.4C113.542 41.392 113.958 42.272 114.79 43.04C115.654 43.776 116.678 44.448 117.862 45.056C119.078 45.632 120.278 46.272 121.462 46.976C122.678 47.648 123.702 48.528 124.534 49.616C125.398 50.704 125.83 51.936 125.83 53.312C125.83 56.16 124.71 58.4 122.47 60.032C120.23 61.664 117.814 62.48 115.222 62.48C112.63 62.48 110.47 62.016 108.742 61.088C107.014 60.128 106.15 58.688 106.15 56.768C106.15 55.744 106.502 54.816 107.206 53.984C107.91 53.152 108.918 52.736 110.23 52.736C110.742 52.736 111.206 52.88 111.622 53.168C112.038 53.456 112.294 53.84 112.39 54.32C112.39 54.8 112.102 55.04 111.526 55.04C110.438 55.04 109.894 55.504 109.894 56.432C109.926 57.488 110.422 58.448 111.382 59.312C112.374 60.176 113.75 60.608 115.51 60.608C117.302 60.608 118.822 60 120.07 58.784C121.35 57.568 121.99 56.096 121.99 54.368C121.99 53.216 121.558 52.176 120.694 51.248C119.83 50.32 118.79 49.536 117.574 48.896C116.358 48.224 115.126 47.552 113.878 46.88C112.662 46.208 111.622 45.392 110.758 44.432C109.894 43.472 109.462 42.384 109.462 41.168C109.462 39.024 110.374 37.312 112.198 36.032C114.054 34.752 116.15 34.112 118.486 34.112C120.054 34.112 121.478 34.432 122.758 35.072C124.038 35.712 124.694 36.688 124.726 38C124.726 38.768 124.534 39.408 124.15 39.92C123.766 40.432 123.238 40.688 122.566 40.688C121.926 40.688 121.59 40.448 121.558 39.968ZM133.007 59.408L133.055 60.896C133.055 61.792 132.799 62.24 132.287 62.24C131.519 62.24 130.783 62.144 130.079 61.952C129.375 61.728 129.023 61.44 129.023 61.088C129.023 60.704 129.103 59.44 129.263 57.296C129.455 55.12 129.551 53.488 129.551 52.4V49.568C129.551 48.032 129.711 47.104 130.031 46.784C130.351 46.464 130.911 46 131.711 45.392C132.543 44.784 133.135 44.48 133.487 44.48C133.871 44.48 134.111 44.544 134.207 44.672C134.303 44.8 134.351 45.04 134.351 45.392C134.351 47.088 134.031 48.688 133.391 50.192C133.231 52.016 133.151 53.28 133.151 53.984C134.847 50.816 136.031 48.736 136.703 47.744C137.887 45.888 138.959 44.96 139.919 44.96C140.527 44.96 141.087 45.2 141.599 45.68C142.143 46.16 142.415 46.752 142.415 47.456C142.415 48.16 142.399 48.832 142.367 49.472C142.367 50.08 142.351 50.56 142.319 50.912C142.287 51.264 142.271 51.488 142.271 51.584C142.399 51.328 142.943 50.608 143.903 49.424C144.863 48.24 145.503 47.472 145.823 47.12C146.175 46.768 146.543 46.416 146.927 46.064C147.663 45.328 148.319 44.96 148.895 44.96C149.503 44.96 150.063 45.184 150.575 45.632C151.119 46.08 151.391 46.64 151.391 47.312C151.391 48.72 151.231 50.8 150.911 53.552C150.623 56.272 150.479 58 150.479 58.736C150.479 59.44 150.575 59.792 150.767 59.792C151.311 59.76 152.063 59.088 153.023 57.776C153.983 56.432 154.927 54.72 155.855 52.64C156.815 50.56 157.391 49.52 157.583 49.52C157.807 49.52 157.919 49.648 157.919 49.904C157.919 50.8 157.455 52.224 156.527 54.176C153.999 59.552 151.871 62.24 150.143 62.24C149.055 62.24 148.191 61.984 147.551 61.472C147.327 61.248 147.215 60.672 147.215 59.744C147.215 58.784 147.295 57.248 147.455 55.136C147.647 52.992 147.743 51.392 147.743 50.336C147.743 49.28 147.567 48.752 147.215 48.752C146.799 48.752 145.887 49.456 144.479 50.864C143.103 52.272 142.367 53.264 142.271 53.84C142.079 54.928 141.983 57.28 141.983 60.896C141.983 61.792 141.743 62.24 141.263 62.24C140.527 62.24 139.823 62.144 139.151 61.952C138.511 61.728 138.191 61.44 138.191 61.088C138.191 60.704 138.287 59.12 138.479 56.336C138.671 53.552 138.767 51.6 138.767 50.48C138.767 49.328 138.575 48.752 138.191 48.752C137.839 48.752 136.959 49.856 135.551 52.064C134.143 54.24 133.359 55.76 133.199 56.624C133.071 57.488 133.007 58.416 133.007 59.408ZM169.007 62.24C167.759 62.24 166.815 61.984 166.175 61.472C165.951 61.248 165.839 60.688 165.839 59.792C165.839 58.864 165.871 57.632 165.935 56.096C165.103 58.176 164.271 59.728 163.439 60.752C162.639 61.744 161.599 62.24 160.319 62.24C159.039 62.24 157.919 61.648 156.959 60.464C155.999 59.248 155.519 57.36 155.519 54.8C155.519 52.208 156.239 49.92 157.679 47.936C159.151 45.952 161.071 44.96 163.439 44.96C164.463 44.96 165.615 45.632 166.895 46.976C167.151 46.624 167.599 46.208 168.239 45.728C168.911 45.216 169.471 44.96 169.919 44.96C170.399 44.96 170.639 45.568 170.639 46.784C170.639 47.104 170.543 47.728 170.351 48.656C170.191 49.584 169.999 50.256 169.775 50.672C169.487 51.408 169.343 54.016 169.343 58.496C169.343 59.36 169.439 59.792 169.631 59.792C170.175 59.76 170.927 59.088 171.887 57.776C172.847 56.432 173.791 54.72 174.719 52.64C175.679 50.56 176.255 49.52 176.447 49.52C176.671 49.52 176.783 49.648 176.783 49.904C176.783 50.8 176.319 52.224 175.391 54.176C172.863 59.552 170.735 62.24 169.007 62.24ZM163.151 46.88C162.255 46.88 161.295 47.552 160.271 48.896C159.279 50.208 158.783 51.76 158.783 53.552C158.783 55.344 159.039 56.816 159.551 57.968C160.095 59.12 160.799 59.696 161.663 59.696C162.719 59.696 164.271 57.056 166.319 51.776C166.351 51.52 166.383 51.088 166.415 50.48C166.479 49.84 166.527 49.36 166.559 49.04C166.271 48.528 165.759 48.048 165.023 47.6C164.319 47.12 163.695 46.88 163.151 46.88ZM178.55 49.472L181.19 49.184C181.446 49.184 181.67 49.328 181.862 49.616C182.054 49.904 182.15 50.208 182.15 50.528C182.15 50.848 182.038 51.936 181.814 53.792C181.622 55.648 181.526 57.12 181.526 58.208C181.526 59.264 181.622 59.792 181.814 59.792C182.358 59.76 183.11 59.088 184.07 57.776C185.03 56.432 185.974 54.72 186.902 52.64C187.862 50.56 188.438 49.52 188.63 49.52C188.854 49.52 188.966 49.648 188.966 49.904C188.966 50.8 188.502 52.224 187.574 54.176C185.046 59.552 182.918 62.24 181.19 62.24C179.942 62.24 178.998 61.984 178.358 61.472C178.134 61.248 178.022 59.856 178.022 57.296C178.022 54.736 178.294 52.544 178.838 50.72C176.982 50.72 175.686 50.128 174.95 48.944C174.566 48.336 174.374 47.648 174.374 46.88C174.374 46.112 174.534 45.44 174.854 44.864C175.174 44.288 175.622 44 176.198 44C176.806 44 177.35 44.32 177.83 44.96C178.342 45.568 178.598 46.256 178.598 47.024C178.598 47.792 178.374 48.56 177.926 49.328C178.054 49.424 178.262 49.472 178.55 49.472ZM197.84 54.176C195.312 59.552 193.168 62.24 191.408 62.24C189.68 62.24 188.656 62.032 188.336 61.616C188.048 61.2 187.904 59.824 187.904 57.488C187.904 55.152 188.128 51.776 188.576 47.36C186.976 47.04 186.128 46.384 186.032 45.392C186.032 44.88 186.368 44.624 187.04 44.624C187.712 44.624 188.304 44.752 188.816 45.008C189.104 42.704 189.44 40.368 189.824 38C189.92 37.392 190.224 36.816 190.736 36.272C191.248 35.728 191.744 35.456 192.224 35.456C192.64 35.456 192.848 36.112 192.848 37.424C192.848 38.032 192.624 40.832 192.176 45.824C193.04 45.664 193.984 45.344 195.008 44.864C196.064 44.384 196.688 44.144 196.88 44.144C197.456 44.144 197.744 44.32 197.744 44.672C197.776 44.992 197.184 45.44 195.968 46.016C194.752 46.56 193.44 46.976 192.032 47.264C191.648 51.936 191.456 55.472 191.456 57.872C191.456 59.152 191.648 59.792 192.032 59.792C192.608 59.76 193.376 59.088 194.336 57.776C195.296 56.464 196.24 54.768 197.168 52.688C198.128 50.576 198.704 49.52 198.896 49.52C199.12 49.52 199.232 49.648 199.232 49.904C199.232 50.8 198.768 52.224 197.84 54.176ZM208.456 62.96C205.8 62.96 203.992 61.808 203.032 59.504C202.36 57.936 201.832 55.952 201.448 53.552C200.488 54.64 199.848 55.392 199.528 55.808C199.208 56.192 198.92 56.384 198.664 56.384C198.28 56.384 198.088 56.224 198.088 55.904C198.088 55.712 198.184 55.52 198.376 55.328C199.496 54.208 200.456 53.184 201.256 52.256C201 50.432 200.872 48.496 200.872 46.448C200.872 44.368 201.064 42.416 201.448 40.592C201.832 38.768 202.472 37.248 203.368 36.032C204.296 34.784 205.432 34.16 206.776 34.16C208.408 34.16 209.224 35.552 209.224 38.336C209.224 41.92 207.784 45.616 204.904 49.424C205.128 52.304 205.688 55.008 206.584 57.536C206.936 58.56 207.32 59.328 207.736 59.84C208.184 60.32 208.792 60.56 209.56 60.56C210.36 60.56 211.24 60.032 212.2 58.976C213.192 57.888 214.104 56.496 214.936 54.8C215.768 53.072 216.472 51.008 217.048 48.608C217.624 46.176 217.912 43.648 217.912 41.024C217.912 38.4 217.72 36.56 217.336 35.504C216.952 34.416 216.296 33.44 215.368 32.576C214.152 31.552 213.544 30.544 213.544 29.552C213.544 29.072 213.736 28.656 214.12 28.304C214.536 27.92 214.952 27.728 215.368 27.728C216.424 27.728 217.304 28.064 218.008 28.736C218.744 29.408 219.272 30.32 219.592 31.472C220.168 33.488 220.456 35.696 220.456 38.096C220.456 42.608 219.832 46.816 218.584 50.72C217.368 54.624 215.832 57.648 213.976 59.792C212.152 61.904 210.312 62.96 208.456 62.96ZM207.4 38.96C207.4 37.264 207.208 36.416 206.824 36.416C206.568 36.416 206.28 36.8 205.96 37.568C205.64 38.336 205.352 39.408 205.096 40.784C204.84 42.16 204.712 43.504 204.712 44.816C204.712 46.128 204.728 47.056 204.76 47.6C206.52 44.656 207.4 41.776 207.4 38.96ZM235.52 62.24C234.272 62.24 233.328 61.984 232.688 61.472C232.464 61.248 232.352 60.688 232.352 59.792C232.352 58.864 232.384 57.632 232.448 56.096C231.616 58.176 230.784 59.728 229.952 60.752C229.152 61.744 228.112 62.24 226.832 62.24C225.552 62.24 224.432 61.648 223.472 60.464C222.512 59.248 222.032 57.36 222.032 54.8C222.032 52.208 222.752 49.92 224.192 47.936C225.664 45.952 227.584 44.96 229.952 44.96C230.976 44.96 232.128 45.632 233.408 46.976C233.664 46.624 234.112 46.208 234.752 45.728C235.424 45.216 235.984 44.96 236.432 44.96C236.912 44.96 237.152 45.568 237.152 46.784C237.152 47.104 237.056 47.728 236.864 48.656C236.704 49.584 236.512 50.256 236.288 50.672C236 51.408 235.856 54.016 235.856 58.496C235.856 59.36 235.952 59.792 236.144 59.792C236.688 59.76 237.44 59.088 238.4 57.776C239.36 56.432 240.304 54.72 241.232 52.64C242.192 50.56 242.768 49.52 242.96 49.52C243.184 49.52 243.296 49.648 243.296 49.904C243.296 50.8 242.832 52.224 241.904 54.176C239.376 59.552 237.248 62.24 235.52 62.24ZM229.664 46.88C228.768 46.88 227.808 47.552 226.784 48.896C225.792 50.208 225.296 51.76 225.296 53.552C225.296 55.344 225.552 56.816 226.064 57.968C226.608 59.12 227.312 59.696 228.176 59.696C229.232 59.696 230.784 57.056 232.832 51.776C232.864 51.52 232.896 51.088 232.928 50.48C232.992 49.84 233.04 49.36 233.072 49.04C232.784 48.528 232.272 48.048 231.536 47.6C230.832 47.12 230.208 46.88 229.664 46.88ZM240.887 57.824L241.175 52.448C241.175 49.024 241.335 47.152 241.655 46.832C241.975 46.512 242.535 46.048 243.335 45.44C244.167 44.8 244.759 44.48 245.111 44.48C245.495 44.48 245.735 44.544 245.831 44.672C245.927 44.8 245.975 45.056 245.975 45.44C245.975 46.816 245.671 48.208 245.063 49.616C244.583 52.56 244.343 54.976 244.343 56.864C244.343 58.752 244.647 59.696 245.255 59.696C245.991 59.696 246.855 59.056 247.847 57.776C248.839 56.496 249.831 54.592 250.823 52.064C251.111 48.864 251.335 47.136 251.495 46.88C251.687 46.624 252.135 46.16 252.839 45.488C253.543 44.816 254.119 44.48 254.567 44.48C255.047 44.48 255.287 45.088 255.287 46.304C255.287 46.624 255.191 47.248 254.999 48.176C254.839 49.104 254.647 49.776 254.423 50.192C254.071 51.088 253.895 53.856 253.895 58.496C253.895 59.36 253.991 59.792 254.183 59.792C254.727 59.76 255.479 59.088 256.439 57.776C257.399 56.432 258.343 54.72 259.271 52.64C260.231 50.56 260.807 49.52 260.999 49.52C261.223 49.52 261.335 49.648 261.335 49.904C261.335 50.8 260.871 52.224 259.943 54.176C257.415 59.552 255.287 62.24 253.559 62.24C252.311 62.24 251.367 61.984 250.727 61.472C250.503 61.248 250.391 60.56 250.391 59.408C250.391 58.256 250.439 56.976 250.535 55.568C249.511 57.744 248.487 59.408 247.463 60.56C246.439 61.68 245.287 62.24 244.007 62.24C242.759 62.24 241.927 61.904 241.511 61.232C241.095 60.56 240.887 59.424 240.887 57.824ZM262.403 62.24C261.699 62.24 261.043 62.16 260.435 62C259.859 61.808 259.507 61.632 259.379 61.472C259.059 61.088 258.899 59.104 258.899 55.52C258.899 51.904 259.299 47.008 260.099 40.832C260.771 35.744 262.339 33.2 264.803 33.2C265.379 33.2 265.795 33.52 266.051 34.16C266.307 34.768 266.435 35.36 266.435 35.936C266.435 40.096 265.171 44.752 262.643 49.904C262.547 52.56 262.499 54.88 262.499 56.864C262.499 58.816 262.675 59.792 263.027 59.792C263.571 59.76 264.323 59.088 265.283 57.776C266.243 56.432 267.187 54.72 268.115 52.64C269.075 50.56 269.651 49.52 269.843 49.52C270.067 49.52 270.179 49.648 270.179 49.904C270.179 50.8 269.715 52.224 268.787 54.176C266.259 59.552 264.131 62.24 262.403 62.24ZM265.235 36.368C265.235 35.344 265.107 34.832 264.851 34.832C263.891 34.832 263.187 38.816 262.739 46.784C264.403 42.4 265.235 38.928 265.235 36.368ZM278.521 54.176C275.993 59.552 273.849 62.24 272.089 62.24C270.361 62.24 269.337 62.032 269.017 61.616C268.729 61.2 268.585 59.824 268.585 57.488C268.585 55.152 268.809 51.776 269.257 47.36C267.657 47.04 266.809 46.384 266.713 45.392C266.713 44.88 267.049 44.624 267.721 44.624C268.393 44.624 268.985 44.752 269.497 45.008C269.785 42.704 270.121 40.368 270.505 38C270.601 37.392 270.905 36.816 271.417 36.272C271.929 35.728 272.425 35.456 272.905 35.456C273.321 35.456 273.529 36.112 273.529 37.424C273.529 38.032 273.305 40.832 272.857 45.824C273.721 45.664 274.665 45.344 275.689 44.864C276.745 44.384 277.369 44.144 277.561 44.144C278.137 44.144 278.425 44.32 278.425 44.672C278.457 44.992 277.865 45.44 276.649 46.016C275.433 46.56 274.121 46.976 272.713 47.264C272.329 51.936 272.137 55.472 272.137 57.872C272.137 59.152 272.329 59.792 272.713 59.792C273.289 59.76 274.057 59.088 275.017 57.776C275.977 56.464 276.921 54.768 277.849 52.688C278.809 50.576 279.385 49.52 279.577 49.52C279.801 49.52 279.913 49.648 279.913 49.904C279.913 50.8 279.449 52.224 278.521 54.176Z" fill="white"/>
</g>
<defs>
<clipPath id="clip0_10_3">
<rect width="280" height="100" fill="white"/>
</clipPath>
</defs>
</svg>
