<svg width="270" height="100" viewBox="0 0 270 100" fill="none" xmlns="http://www.w3.org/2000/svg">
<rect width="270" height="100" fill="#1E1E1E"/>
<path opacity="0.2" d="M45.0999 0H45.0998C20.1919 0 0 20.429 0 45.6294V45.6295C0 70.8299 20.1919 91.2589 45.0998 91.2589H45.0999C70.0078 91.2589 90.1996 70.8299 90.1996 45.6295V45.6294C90.1996 20.429 70.0078 0 45.0999 0Z" fill="white"/>
<path d="M99 69C99 51.8792 85.5685 38 69 38C52.4315 38 39 51.8792 39 69C39 86.1208 52.4315 100 69 100C85.5685 100 99 86.1208 99 69Z" fill="white"/>
<path d="M119.834 50.2661C120.314 50.9861 120.662 51.7661 120.878 52.6061C121.118 53.4221 121.238 54.3221 121.238 55.3061C121.238 57.2981 120.602 58.9301 119.33 60.2021C118.058 61.4501 116.426 62.0741 114.434 62.0741C112.034 62.0741 110.15 61.1981 108.782 59.4461C107.438 57.6701 106.766 55.3661 106.766 52.5341C107.15 52.3421 107.57 52.1741 108.026 52.0301C108.482 51.8861 108.926 51.8021 109.358 51.7781C109.334 54.3461 109.754 56.3621 110.618 57.8261C111.506 59.2901 112.742 60.0221 114.326 60.0221C115.526 60.0221 116.486 59.6261 117.206 58.8341C117.95 58.0181 118.322 56.9501 118.322 55.6301C118.322 54.3581 118.034 53.2301 117.458 52.2461C116.882 51.2381 115.634 50.0261 113.714 48.6101C112.562 47.7461 111.722 47.0621 111.194 46.5581C110.666 46.0301 110.222 45.4901 109.862 44.9381C109.382 44.2181 109.022 43.4381 108.782 42.5981C108.542 41.7581 108.422 40.8461 108.422 39.8621C108.422 37.7741 109.01 36.1181 110.186 34.8941C111.386 33.6461 112.982 33.0221 114.974 33.0221C116.798 33.0221 118.214 33.5501 119.222 34.6061C120.254 35.6381 121.01 37.4021 121.49 39.8981C121.154 40.0901 120.782 40.2341 120.374 40.3301C119.99 40.4261 119.498 40.4861 118.898 40.5101C118.682 38.6141 118.262 37.2461 117.638 36.4061C117.014 35.5661 116.09 35.1461 114.866 35.1461C113.738 35.1461 112.874 35.5181 112.274 36.2621C111.674 37.0061 111.374 38.0861 111.374 39.5021C111.374 40.7981 111.662 41.9621 112.238 42.9941C112.838 44.0021 114.098 45.2261 116.018 46.6661C117.17 47.5301 117.998 48.2141 118.502 48.7181C119.03 49.2221 119.474 49.7381 119.834 50.2661ZM127.631 54.6221C127.631 56.0141 127.655 57.3461 127.703 58.6181C127.751 59.8661 127.811 60.7661 127.883 61.3181C127.571 61.4141 127.199 61.4981 126.767 61.5701C126.335 61.6421 125.915 61.6781 125.507 61.6781C125.339 58.8461 125.183 55.4741 125.039 51.5621C124.895 47.6501 124.823 44.4101 124.823 41.8421C125.063 41.7221 125.351 41.6261 125.687 41.5541C126.023 41.4821 126.371 41.4461 126.731 41.4461C127.091 41.4461 127.367 41.4581 127.559 41.4821C127.775 41.5061 127.979 41.5421 128.171 41.5901C128.147 41.8301 128.099 42.3101 128.027 43.0301C127.979 43.7261 127.919 44.6621 127.847 45.8381C128.591 44.6861 129.395 43.8221 130.259 43.2461C131.147 42.6701 132.095 42.3821 133.103 42.3821C133.967 42.3821 134.675 42.5861 135.227 42.9941C135.803 43.4021 136.247 44.0261 136.559 44.8661C137.399 43.3781 138.287 42.2621 139.223 41.5181C140.183 40.7741 141.215 40.4021 142.319 40.4021C143.735 40.4021 144.767 40.9421 145.415 42.0221C146.063 43.1021 146.387 44.8061 146.387 47.1341C146.387 49.2461 146.183 51.6341 145.775 54.2981C145.391 56.9621 144.911 59.3381 144.335 61.4261C143.903 61.4021 143.435 61.3421 142.931 61.2461C142.451 61.1741 142.043 61.0781 141.707 60.9581C142.355 58.3661 142.835 55.9301 143.147 53.6501C143.483 51.3461 143.651 49.1381 143.651 47.0261C143.651 45.5141 143.471 44.4341 143.111 43.7861C142.775 43.1141 142.211 42.7781 141.419 42.7781C140.627 42.7781 139.847 43.1741 139.079 43.9661C138.311 44.7581 137.639 45.8621 137.063 47.2781C137.087 47.6861 137.099 48.0341 137.099 48.3221C137.123 48.5861 137.135 48.8381 137.135 49.0781C137.135 50.7821 136.991 52.7141 136.703 54.8741C136.415 57.0341 136.091 58.8221 135.731 60.2381C135.371 60.2141 134.951 60.1661 134.471 60.0941C134.015 59.9981 133.595 59.8901 133.211 59.7701C133.667 57.3461 133.979 55.3061 134.147 53.6501C134.339 51.9941 134.435 50.4581 134.435 49.0421C134.435 47.5061 134.255 46.4141 133.895 45.7661C133.559 45.0941 132.995 44.7581 132.203 44.7581C131.363 44.7581 130.535 45.1301 129.719 45.8741C128.927 46.6181 128.267 47.6381 127.739 48.9341C127.715 49.8941 127.691 50.8781 127.667 51.8861C127.643 52.8701 127.631 53.7821 127.631 54.6221ZM163.129 48.3581C163.129 49.9421 162.913 52.0421 162.481 54.6581C162.049 57.2741 161.533 59.6741 160.933 61.8581C160.573 61.8581 160.189 61.8221 159.781 61.7501C159.373 61.6781 158.977 61.5821 158.593 61.4621C158.617 61.3661 158.641 61.2461 158.665 61.1021C158.689 60.9821 158.737 60.8141 158.809 60.5981C158.881 60.2141 158.941 59.9381 158.989 59.7701C159.037 59.5781 159.073 59.4101 159.097 59.2661C158.593 59.6261 158.017 59.9021 157.369 60.0941C156.745 60.2861 156.073 60.3821 155.353 60.3821C153.721 60.3821 152.401 59.9501 151.393 59.0861C150.385 58.1981 149.881 57.0341 149.881 55.5941C149.881 54.0341 150.541 52.8461 151.861 52.0301C153.181 51.2141 155.125 50.8061 157.693 50.8061C158.077 50.8061 158.449 50.8181 158.809 50.8421C159.169 50.8421 159.649 50.8541 160.249 50.8781C160.273 50.6381 160.285 50.3741 160.285 50.0861C160.285 49.7981 160.285 49.3421 160.285 48.7181C160.285 46.7981 160.045 45.4061 159.565 44.5421C159.109 43.6781 158.341 43.2461 157.261 43.2461C156.157 43.2461 155.233 43.7381 154.489 44.7221C153.745 45.6821 153.349 46.9061 153.301 48.3941C152.629 48.2981 152.089 48.1421 151.681 47.9261C151.273 47.6861 150.961 47.3741 150.745 46.9901C151.033 45.4061 151.825 44.0621 153.121 42.9581C154.441 41.8541 155.941 41.3021 157.621 41.3021C159.445 41.3021 160.813 41.9021 161.725 43.1021C162.661 44.2781 163.129 46.0301 163.129 48.3581ZM152.725 55.6661C152.725 56.5541 153.013 57.2621 153.589 57.7901C154.165 58.2941 154.921 58.5461 155.857 58.5461C156.529 58.5461 157.165 58.4501 157.765 58.2581C158.389 58.0421 158.965 57.7301 159.493 57.3221C159.685 56.3381 159.829 55.4621 159.925 54.6941C160.045 53.9261 160.129 53.1581 160.177 52.3901C157.705 52.2461 155.845 52.4501 154.597 53.0021C153.349 53.5301 152.725 54.4181 152.725 55.6661ZM171.018 60.7061C170.826 60.7781 170.598 60.8381 170.334 60.8861C170.07 60.9341 169.806 60.9581 169.542 60.9581C169.35 60.9821 169.17 60.9821 169.002 60.9581C168.858 60.9341 168.714 60.8981 168.57 60.8501C167.97 57.8021 167.562 54.6101 167.346 51.2741C167.154 47.9381 167.142 44.5781 167.31 41.1941C167.478 41.1221 167.682 41.0741 167.922 41.0501C168.162 41.0021 168.522 40.9781 169.002 40.9781C169.242 40.9781 169.47 41.0021 169.686 41.0501C169.926 41.0741 170.166 41.1221 170.406 41.1941C170.262 42.2261 170.154 43.1021 170.082 43.8221C170.01 44.5421 169.962 45.2261 169.938 45.8741C170.49 44.0021 171.222 42.5261 172.134 41.4461C173.046 40.3661 173.994 39.8261 174.978 39.8261C175.938 39.8261 176.646 40.1861 177.102 40.9061C177.558 41.6021 177.786 42.6821 177.786 44.1461C177.786 44.4341 177.774 44.7461 177.75 45.0821C177.726 45.4181 177.702 45.7781 177.678 46.1621C177.39 46.2341 177.042 46.2941 176.634 46.3421C176.25 46.3661 175.83 46.3661 175.374 46.3421C175.422 45.9821 175.458 45.6461 175.482 45.3341C175.506 44.9981 175.518 44.6741 175.518 44.3621C175.518 43.5941 175.422 43.0301 175.23 42.6701C175.038 42.2861 174.75 42.0941 174.366 42.0941C173.55 42.0941 172.734 42.9581 171.918 44.6861C171.102 46.3901 170.454 48.6101 169.974 51.3461C170.046 52.7141 170.166 54.1781 170.334 55.7381C170.502 57.2741 170.73 58.9301 171.018 60.7061ZM188.846 53.1821C189.23 53.2301 189.602 53.3141 189.962 53.4341C190.346 53.5301 190.67 53.6621 190.934 53.8301C190.886 55.8461 190.478 57.4301 189.71 58.5821C188.966 59.7101 187.946 60.2741 186.65 60.2741C185.138 60.2741 183.998 59.4221 183.23 57.7181C182.462 55.9901 182.078 53.4461 182.078 50.0861C182.078 48.9821 182.114 47.8781 182.186 46.7741C182.258 45.6701 182.366 44.5421 182.51 43.3901C182.054 43.3661 181.598 43.3181 181.142 43.2461C180.71 43.1741 180.266 43.0901 179.81 42.9941C179.834 42.6581 179.882 42.3341 179.954 42.0221C180.026 41.7101 180.122 41.4221 180.242 41.1581C180.698 41.2541 181.13 41.3381 181.538 41.4101C181.946 41.4821 182.354 41.5301 182.762 41.5541C182.858 40.9301 182.978 40.2581 183.122 39.5381C183.29 38.7941 183.506 37.8821 183.77 36.8021C184.274 36.8261 184.766 36.8861 185.246 36.9821C185.75 37.0541 186.23 37.1621 186.686 37.3061C186.446 38.0981 186.23 38.8661 186.038 39.6101C185.846 40.3541 185.69 41.0741 185.57 41.7701C186.53 41.7941 187.466 41.7941 188.378 41.7701C189.29 41.7221 190.178 41.6621 191.042 41.5901C191.042 41.8301 191.006 42.1061 190.934 42.4181C190.886 42.7061 190.814 43.0181 190.718 43.3541C189.83 43.4501 188.918 43.5221 187.982 43.5701C187.07 43.5941 186.158 43.5941 185.246 43.5701C185.078 44.6981 184.946 45.8501 184.85 47.0261C184.754 48.2021 184.706 49.3541 184.706 50.4821C184.706 53.0261 184.886 54.9701 185.246 56.3141C185.63 57.6341 186.17 58.2941 186.866 58.2941C187.514 58.2941 187.994 57.8861 188.306 57.0701C188.642 56.2301 188.822 54.9341 188.846 53.1821ZM211.635 33.7421C211.011 39.4301 210.087 44.4461 208.863 48.7901C207.639 53.1101 205.695 58.1021 203.031 63.7661C202.695 63.8621 202.347 63.9341 201.987 63.9821C201.627 64.0301 201.219 64.0541 200.763 64.0541C199.035 60.0461 197.583 55.9421 196.407 51.7421C195.231 47.5181 194.319 43.1381 193.671 38.6021C194.151 38.3861 194.619 38.2181 195.075 38.0981C195.531 37.9541 196.023 37.8581 196.551 37.8101C197.031 41.7941 197.739 45.7061 198.675 49.5461C199.635 53.3861 200.823 57.1061 202.239 60.7061C204.207 55.9541 205.695 51.5261 206.703 47.4221C207.711 43.2941 208.455 38.5661 208.935 33.2381C209.415 33.2381 209.859 33.2861 210.267 33.3821C210.699 33.4541 211.155 33.5741 211.635 33.7421ZM225.846 48.3581C225.846 49.9421 225.63 52.0421 225.198 54.6581C224.766 57.2741 224.25 59.6741 223.65 61.8581C223.29 61.8581 222.906 61.8221 222.498 61.7501C222.09 61.6781 221.694 61.5821 221.31 61.4621C221.334 61.3661 221.358 61.2461 221.382 61.1021C221.406 60.9821 221.454 60.8141 221.526 60.5981C221.598 60.2141 221.658 59.9381 221.706 59.7701C221.754 59.5781 221.79 59.4101 221.814 59.2661C221.31 59.6261 220.734 59.9021 220.086 60.0941C219.462 60.2861 218.79 60.3821 218.07 60.3821C216.438 60.3821 215.118 59.9501 214.11 59.0861C213.102 58.1981 212.598 57.0341 212.598 55.5941C212.598 54.0341 213.258 52.8461 214.578 52.0301C215.898 51.2141 217.842 50.8061 220.41 50.8061C220.794 50.8061 221.166 50.8181 221.526 50.8421C221.886 50.8421 222.366 50.8541 222.966 50.8781C222.99 50.6381 223.002 50.3741 223.002 50.0861C223.002 49.7981 223.002 49.3421 223.002 48.7181C223.002 46.7981 222.762 45.4061 222.282 44.5421C221.826 43.6781 221.058 43.2461 219.978 43.2461C218.874 43.2461 217.95 43.7381 217.206 44.7221C216.462 45.6821 216.066 46.9061 216.018 48.3941C215.346 48.2981 214.806 48.1421 214.398 47.9261C213.99 47.6861 213.678 47.3741 213.462 46.9901C213.75 45.4061 214.542 44.0621 215.838 42.9581C217.158 41.8541 218.658 41.3021 220.338 41.3021C222.162 41.3021 223.53 41.9021 224.442 43.1021C225.378 44.2781 225.846 46.0301 225.846 48.3581ZM215.442 55.6661C215.442 56.5541 215.73 57.2621 216.306 57.7901C216.882 58.2941 217.638 58.5461 218.574 58.5461C219.246 58.5461 219.882 58.4501 220.482 58.2581C221.106 58.0421 221.682 57.7301 222.21 57.3221C222.402 56.3381 222.546 55.4621 222.642 54.6941C222.762 53.9261 222.846 53.1581 222.894 52.3901C220.422 52.2461 218.562 52.4501 217.314 53.0021C216.066 53.5301 215.442 54.4181 215.442 55.6661ZM234.995 60.9941C233.243 60.9941 231.911 60.1421 230.999 58.4381C230.111 56.7341 229.667 54.2261 229.667 50.9141C229.667 49.2341 229.799 47.5541 230.063 45.8741C230.351 44.1701 230.699 42.9461 231.107 42.2021C231.323 42.1301 231.539 42.0821 231.755 42.0581C231.971 42.0101 232.187 41.9861 232.403 41.9861C232.619 41.9861 232.811 42.0101 232.979 42.0581C233.171 42.0821 233.351 42.1421 233.519 42.2381C233.159 43.3901 232.883 44.7101 232.691 46.1981C232.499 47.6861 232.403 49.2941 232.403 51.0221C232.403 53.3501 232.667 55.2581 233.195 56.7461C233.747 58.2341 234.479 58.9781 235.391 58.9781C236.519 58.9781 237.371 58.1141 237.947 56.3861C238.547 54.6581 238.847 52.2341 238.847 49.1141C238.847 48.1541 238.799 47.1581 238.703 46.1261C238.607 45.0701 238.511 44.3381 238.415 43.9301C238.775 43.7621 239.219 43.6301 239.747 43.5341C240.275 43.4381 240.779 43.3901 241.259 43.3901C241.379 43.9421 241.463 44.6021 241.511 45.3701C241.583 46.1381 241.619 46.9181 241.619 47.7101C241.619 52.0061 241.055 55.2941 239.927 57.5741C238.823 59.8541 237.179 60.9941 234.995 60.9941ZM248.429 62.5421C248.189 62.6141 247.805 62.6741 247.277 62.7221C246.773 62.7941 246.341 62.8301 245.981 62.8301C245.597 57.4781 245.369 52.5701 245.297 48.1061C245.249 43.6181 245.357 39.0341 245.621 34.3541C245.861 34.2341 246.125 34.1381 246.413 34.0661C246.725 33.9701 247.025 33.9221 247.313 33.9221C247.553 33.9221 247.781 33.9461 247.997 33.9941C248.237 34.0181 248.489 34.0661 248.753 34.1381C248.369 37.8581 248.141 42.2621 248.069 47.3501C248.021 52.4141 248.141 57.4781 248.429 62.5421ZM260.783 53.1821C261.167 53.2301 261.539 53.3141 261.899 53.4341C262.283 53.5301 262.607 53.6621 262.871 53.8301C262.823 55.8461 262.415 57.4301 261.647 58.5821C260.903 59.7101 259.883 60.2741 258.587 60.2741C257.075 60.2741 255.935 59.4221 255.167 57.7181C254.399 55.9901 254.015 53.4461 254.015 50.0861C254.015 48.9821 254.051 47.8781 254.123 46.7741C254.195 45.6701 254.303 44.5421 254.447 43.3901C253.991 43.3661 253.535 43.3181 253.079 43.2461C252.647 43.1741 252.203 43.0901 251.747 42.9941C251.771 42.6581 251.819 42.3341 251.891 42.0221C251.963 41.7101 252.059 41.4221 252.179 41.1581C252.635 41.2541 253.067 41.3381 253.475 41.4101C253.883 41.4821 254.291 41.5301 254.699 41.5541C254.795 40.9301 254.915 40.2581 255.059 39.5381C255.227 38.7941 255.443 37.8821 255.707 36.8021C256.211 36.8261 256.703 36.8861 257.183 36.9821C257.687 37.0541 258.167 37.1621 258.623 37.3061C258.383 38.0981 258.167 38.8661 257.975 39.6101C257.783 40.3541 257.627 41.0741 257.507 41.7701C258.467 41.7941 259.403 41.7941 260.315 41.7701C261.227 41.7221 262.115 41.6621 262.979 41.5901C262.979 41.8301 262.943 42.1061 262.871 42.4181C262.823 42.7061 262.751 43.0181 262.655 43.3541C261.767 43.4501 260.855 43.5221 259.919 43.5701C259.007 43.5941 258.095 43.5941 257.183 43.5701C257.015 44.6981 256.883 45.8501 256.787 47.0261C256.691 48.2021 256.643 49.3541 256.643 50.4821C256.643 53.0261 256.823 54.9701 257.183 56.3141C257.567 57.6341 258.107 58.2941 258.803 58.2941C259.451 58.2941 259.931 57.8861 260.243 57.0701C260.579 56.2301 260.759 54.9341 260.783 53.1821Z" fill="white"/>
</svg>
